# xmcd
#
# Track frame offsets:
#	150
#	15335
#	29154
#	44471
#	58420
#	73808
#	90875
#	103946
#	124060
#	138743
#	154769
#	171792
#
# Disc length: 2503 seconds
#
# Revision: 0
# Processed by: cddbd v1.5.2PL0 Copyright (c) Steve Scherf et al.
# Submitted via: dBpowerAMP V4.0
#
DISCID=aa09c50c
DTITLE=D.D.E - No går det så det suse
DYEAR=2007
DGENRE=Dance
TTITLE0=No går det så det suse'
TTITLE1=Æ veit at tia går
TTITLE2=Som nylagt is om høsten
TTITLE3=Eeepepep!! Hit men ikke lenger
TTITLE4=Du vekke' dyret
TTITLE5=Et utsletti respateksbord
TTITLE6=Terningen e kasta
TTITLE7=Som stakkars Houdini
TTITLE8=Æ tåle trøkke
TTITLE9=Kjør på, peis på
TTITLE10=Æ kan bli om du tør
TTITLE11=Siste mann sløkke og låse
EXTD=
EXTT0=
EXTT1=
EXTT2=
EXTT3=
EXTT4=
EXTT5=
EXTT6=
EXTT7=
EXTT8=
EXTT9=
EXTT10=
EXTT11=
PLAYORDER=
